<svg id="visual" viewBox="0 0 1200 1200" width="1200" height="1200" xmlns="http://www.w3.org/2000/svg" xmlns:xlink="http://www.w3.org/1999/xlink" version="1.1"><g stroke-width="1" stroke-linejoin="bevel"><path d="M671.7 597L700.7 600L675.7 519Z" fill="#e1e1e1" stroke="#e1e1e1"></path><path d="M675.7 519L634 521L671.7 597Z" fill="#e4e4e4" stroke="#e4e4e4"></path><path d="M700.7 600L775.4 529L675.7 519Z" fill="#dcdcdc" stroke="#dcdcdc"></path><path d="M539.3 649L640 665L671.7 597Z" fill="#d9d9d9" stroke="#d9d9d9"></path><path d="M671.7 597L640 665L700.7 600Z" fill="#e1e1e1" stroke="#e1e1e1"></path><path d="M700.7 600L800.4 615L775.4 529Z" fill="#e4e4e4" stroke="#e4e4e4"></path><path d="M688.7 712L800.4 615L700.7 600Z" fill="#dcdcdc" stroke="#dcdcdc"></path><path d="M675.7 519L588 462L634 521Z" fill="#dfdfdf" stroke="#dfdfdf"></path><path d="M634 521L539.3 649L671.7 597Z" fill="#e4e4e4" stroke="#e4e4e4"></path><path d="M674.7 373L588 462L675.7 519Z" fill="#efefef" stroke="#efefef"></path><path d="M868.1 536L809.4 466L775.4 529Z" fill="#e4e4e4" stroke="#e4e4e4"></path><path d="M775.4 529L769.4 425L675.7 519Z" fill="#d9d9d9" stroke="#d9d9d9"></path><path d="M640 665L688.7 712L700.7 600Z" fill="#dcdcdc" stroke="#dcdcdc"></path><path d="M809.4 466L769.4 425L775.4 529Z" fill="#e7e7e7" stroke="#e7e7e7"></path><path d="M486.3 534L539.3 649L634 521Z" fill="#e1e1e1" stroke="#e1e1e1"></path><path d="M640 665L595 721L688.7 712Z" fill="#dcdcdc" stroke="#dcdcdc"></path><path d="M800.4 615L868.1 536L775.4 529Z" fill="#e1e1e1" stroke="#e1e1e1"></path><path d="M769.4 425L674.7 373L675.7 519Z" fill="#e1e1e1" stroke="#e1e1e1"></path><path d="M539.3 649L595 721L640 665Z" fill="#efefef" stroke="#efefef"></path><path d="M674.7 373L586 393L588 462Z" fill="#eaeaea" stroke="#eaeaea"></path><path d="M588 462L486.3 534L634 521Z" fill="#e4e4e4" stroke="#e4e4e4"></path><path d="M868.1 536L878.1 498L809.4 466Z" fill="#f5f5f5" stroke="#f5f5f5"></path><path d="M809.4 466L839.1 409L769.4 425Z" fill="#efefef" stroke="#efefef"></path><path d="M769.4 817L808.4 723L688.7 712Z" fill="#eaeaea" stroke="#eaeaea"></path><path d="M688.7 712L808.4 723L800.4 615Z" fill="#eaeaea" stroke="#eaeaea"></path><path d="M800.4 615L896.1 661L868.1 536Z" fill="#f2f2f2" stroke="#f2f2f2"></path><path d="M487.3 439L486.3 534L588 462Z" fill="#dfdfdf" stroke="#dfdfdf"></path><path d="M539.3 649L543.3 710L595 721Z" fill="#f2f2f2" stroke="#f2f2f2"></path><path d="M433.6 732L543.3 710L539.3 649Z" fill="#efefef" stroke="#efefef"></path><path d="M878.1 498L839.1 409L809.4 466Z" fill="#f5f5f5" stroke="#f5f5f5"></path><path d="M769.4 425L764.4 356L674.7 373Z" fill="#efefef" stroke="#efefef"></path><path d="M554.3 824L618 759L595 721Z" fill="#dcdcdc" stroke="#dcdcdc"></path><path d="M595 721L618 759L688.7 712Z" fill="#dfdfdf" stroke="#dfdfdf"></path><path d="M839.1 409L764.4 356L769.4 425Z" fill="#dcdcdc" stroke="#dcdcdc"></path><path d="M665.7 276L646.7 345L674.7 373Z" fill="#f2f2f2" stroke="#f2f2f2"></path><path d="M674.7 373L646.7 345L586 393Z" fill="#dfdfdf" stroke="#dfdfdf"></path><path d="M808.4 723L861.1 706L800.4 615Z" fill="#f2f2f2" stroke="#f2f2f2"></path><path d="M868.1 536L915.9 489L878.1 498Z" fill="#d9d9d9" stroke="#d9d9d9"></path><path d="M861.1 706L896.1 661L800.4 615Z" fill="#e7e7e7" stroke="#e7e7e7"></path><path d="M646.7 345L582 352L586 393Z" fill="#dfdfdf" stroke="#dfdfdf"></path><path d="M586 393L487.3 439L588 462Z" fill="#d9d9d9" stroke="#d9d9d9"></path><path d="M519.3 367L487.3 439L586 393Z" fill="#e1e1e1" stroke="#e1e1e1"></path><path d="M958.9 538L915.9 489L868.1 536Z" fill="#f2f2f2" stroke="#f2f2f2"></path><path d="M878.1 498L915.9 489L839.1 409Z" fill="#f5f5f5" stroke="#f5f5f5"></path><path d="M582 352L519.3 367L586 393Z" fill="#e7e7e7" stroke="#e7e7e7"></path><path d="M418.6 379L454.6 455L487.3 439Z" fill="#ededed" stroke="#ededed"></path><path d="M487.3 439L454.6 455L486.3 534Z" fill="#eaeaea" stroke="#eaeaea"></path><path d="M486.3 534L432.6 623L539.3 649Z" fill="#f2f2f2" stroke="#f2f2f2"></path><path d="M929.9 733L944.9 617L896.1 661Z" fill="#d9d9d9" stroke="#d9d9d9"></path><path d="M896.1 661L944.9 617L868.1 536Z" fill="#f5f5f5" stroke="#f5f5f5"></path><path d="M671.7 858L683.7 823L618 759Z" fill="#dcdcdc" stroke="#dcdcdc"></path><path d="M618 759L683.7 823L688.7 712Z" fill="#ededed" stroke="#ededed"></path><path d="M808.4 723L879.1 794L861.1 706Z" fill="#dcdcdc" stroke="#dcdcdc"></path><path d="M391.6 552L432.6 623L486.3 534Z" fill="#e7e7e7" stroke="#e7e7e7"></path><path d="M543.3 710L554.3 824L595 721Z" fill="#ededed" stroke="#ededed"></path><path d="M944.9 617L958.9 538L868.1 536Z" fill="#d9d9d9" stroke="#d9d9d9"></path><path d="M683.7 823L769.4 817L688.7 712Z" fill="#d9d9d9" stroke="#d9d9d9"></path><path d="M861.1 706L929.9 733L896.1 661Z" fill="#e1e1e1" stroke="#e1e1e1"></path><path d="M839.1 409L850.1 325L764.4 356Z" fill="#dcdcdc" stroke="#dcdcdc"></path><path d="M764.4 356L665.7 276L674.7 373Z" fill="#f2f2f2" stroke="#f2f2f2"></path><path d="M947.9 428L850.1 325L839.1 409Z" fill="#dfdfdf" stroke="#dfdfdf"></path><path d="M947.9 428L839.1 409L915.9 489Z" fill="#ededed" stroke="#ededed"></path><path d="M789.4 245L665.7 276L764.4 356Z" fill="#e4e4e4" stroke="#e4e4e4"></path><path d="M646.7 345L618 266L582 352Z" fill="#e1e1e1" stroke="#e1e1e1"></path><path d="M582 352L512.3 322L519.3 367Z" fill="#dfdfdf" stroke="#dfdfdf"></path><path d="M997.6 447L947.9 428L915.9 489Z" fill="#e4e4e4" stroke="#e4e4e4"></path><path d="M879.1 794L929.9 733L861.1 706Z" fill="#f2f2f2" stroke="#f2f2f2"></path><path d="M1020.6 544L997.6 447L958.9 538Z" fill="#e7e7e7" stroke="#e7e7e7"></path><path d="M618 266L512.3 322L582 352Z" fill="#ededed" stroke="#ededed"></path><path d="M519.3 367L418.6 379L487.3 439Z" fill="#dfdfdf" stroke="#dfdfdf"></path><path d="M467.6 822L554.3 824L543.3 710Z" fill="#eaeaea" stroke="#eaeaea"></path><path d="M380.9 542L391.6 552L454.6 455Z" fill="#e4e4e4" stroke="#e4e4e4"></path><path d="M454.6 455L391.6 552L486.3 534Z" fill="#f2f2f2" stroke="#f2f2f2"></path><path d="M554.3 824L671.7 858L618 759Z" fill="#dfdfdf" stroke="#dfdfdf"></path><path d="M683.7 823L671.7 858L769.4 817Z" fill="#f2f2f2" stroke="#f2f2f2"></path><path d="M787.4 896L879.1 794L769.4 817Z" fill="#dfdfdf" stroke="#dfdfdf"></path><path d="M769.4 817L879.1 794L808.4 723Z" fill="#f2f2f2" stroke="#f2f2f2"></path><path d="M665.7 276L618 266L646.7 345Z" fill="#f2f2f2" stroke="#f2f2f2"></path><path d="M344.9 645L433.6 732L432.6 623Z" fill="#eaeaea" stroke="#eaeaea"></path><path d="M432.6 623L433.6 732L539.3 649Z" fill="#dcdcdc" stroke="#dcdcdc"></path><path d="M325.9 488L380.9 542L454.6 455Z" fill="#e4e4e4" stroke="#e4e4e4"></path><path d="M391.6 552L344.9 645L432.6 623Z" fill="#f5f5f5" stroke="#f5f5f5"></path><path d="M488.3 278L460.6 336L512.3 322Z" fill="#e7e7e7" stroke="#e7e7e7"></path><path d="M512.3 322L460.6 336L519.3 367Z" fill="#f2f2f2" stroke="#f2f2f2"></path><path d="M467.6 822L553.3 852L554.3 824Z" fill="#e4e4e4" stroke="#e4e4e4"></path><path d="M554.3 824L612 888L671.7 858Z" fill="#eaeaea" stroke="#eaeaea"></path><path d="M460.6 336L418.6 379L519.3 367Z" fill="#dcdcdc" stroke="#dcdcdc"></path><path d="M958.9 538L997.6 447L915.9 489Z" fill="#e4e4e4" stroke="#e4e4e4"></path><path d="M947.9 428L913.9 291L850.1 325Z" fill="#e1e1e1" stroke="#e1e1e1"></path><path d="M1020.6 544L958.9 538L944.9 617Z" fill="#ededed" stroke="#ededed"></path><path d="M885.1 265L789.4 245L850.1 325Z" fill="#ededed" stroke="#ededed"></path><path d="M850.1 325L789.4 245L764.4 356Z" fill="#ededed" stroke="#ededed"></path><path d="M665.7 276L664.7 168L618 266Z" fill="#f2f2f2" stroke="#f2f2f2"></path><path d="M1049.6 654L1020.6 544L944.9 617Z" fill="#d9d9d9" stroke="#d9d9d9"></path><path d="M553.3 852L612 888L554.3 824Z" fill="#f2f2f2" stroke="#f2f2f2"></path><path d="M671.7 858L787.4 896L769.4 817Z" fill="#f2f2f2" stroke="#f2f2f2"></path><path d="M879.1 794L955.9 776L929.9 733Z" fill="#e4e4e4" stroke="#e4e4e4"></path><path d="M929.9 733L1049.6 654L944.9 617Z" fill="#ededed" stroke="#ededed"></path><path d="M966.9 862L955.9 776L879.1 794Z" fill="#eaeaea" stroke="#eaeaea"></path><path d="M433.6 732L467.6 822L543.3 710Z" fill="#f2f2f2" stroke="#f2f2f2"></path><path d="M553.3 852L593 940L612 888Z" fill="#efefef" stroke="#efefef"></path><path d="M460.6 202L488.3 278L535.3 159Z" fill="#efefef" stroke="#efefef"></path><path d="M618 266L488.3 278L512.3 322Z" fill="#f5f5f5" stroke="#f5f5f5"></path><path d="M339.9 308L312.9 409L418.6 379Z" fill="#dfdfdf" stroke="#dfdfdf"></path><path d="M1017.6 345L913.9 291L947.9 428Z" fill="#d9d9d9" stroke="#d9d9d9"></path><path d="M711.7 957L787.4 896L671.7 858Z" fill="#ededed" stroke="#ededed"></path><path d="M913.9 291L885.1 265L850.1 325Z" fill="#efefef" stroke="#efefef"></path><path d="M265.1 545L344.9 645L380.9 542Z" fill="#e4e4e4" stroke="#e4e4e4"></path><path d="M380.9 542L344.9 645L391.6 552Z" fill="#f5f5f5" stroke="#f5f5f5"></path><path d="M433.6 732L361.9 815L467.6 822Z" fill="#f5f5f5" stroke="#f5f5f5"></path><path d="M1017.6 345L916.9 271L913.9 291Z" fill="#f2f2f2" stroke="#f2f2f2"></path><path d="M913.9 291L916.9 271L885.1 265Z" fill="#dfdfdf" stroke="#dfdfdf"></path><path d="M735.4 135L664.7 168L789.4 245Z" fill="#f5f5f5" stroke="#f5f5f5"></path><path d="M297.1 494L325.9 488L312.9 409Z" fill="#f2f2f2" stroke="#f2f2f2"></path><path d="M418.6 379L325.9 488L454.6 455Z" fill="#e4e4e4" stroke="#e4e4e4"></path><path d="M1054.6 706L1049.6 654L929.9 733Z" fill="#f2f2f2" stroke="#f2f2f2"></path><path d="M1067.6 406L1017.6 345L997.6 447Z" fill="#d9d9d9" stroke="#d9d9d9"></path><path d="M966.9 862L1008.6 765L955.9 776Z" fill="#ededed" stroke="#ededed"></path><path d="M955.9 776L1008.6 765L929.9 733Z" fill="#dcdcdc" stroke="#dcdcdc"></path><path d="M1093.3 515L997.6 447L1020.6 544Z" fill="#dfdfdf" stroke="#dfdfdf"></path><path d="M997.6 447L1017.6 345L947.9 428Z" fill="#ededed" stroke="#ededed"></path><path d="M823.1 166L789.4 245L885.1 265Z" fill="#ededed" stroke="#ededed"></path><path d="M789.4 245L664.7 168L665.7 276Z" fill="#f5f5f5" stroke="#f5f5f5"></path><path d="M1008.6 765L1054.6 706L929.9 733Z" fill="#ededed" stroke="#ededed"></path><path d="M486.3 946L593 940L553.3 852Z" fill="#d9d9d9" stroke="#d9d9d9"></path><path d="M612 888L711.7 957L671.7 858Z" fill="#d9d9d9" stroke="#d9d9d9"></path><path d="M254.1 677L316.9 694L344.9 645Z" fill="#e4e4e4" stroke="#e4e4e4"></path><path d="M344.9 645L316.9 694L433.6 732Z" fill="#ededed" stroke="#ededed"></path><path d="M467.6 822L454.6 914L553.3 852Z" fill="#e1e1e1" stroke="#e1e1e1"></path><path d="M312.9 409L325.9 488L418.6 379Z" fill="#ededed" stroke="#ededed"></path><path d="M325.9 488L265.1 545L380.9 542Z" fill="#eaeaea" stroke="#eaeaea"></path><path d="M593 940L711.7 957L612 888Z" fill="#f5f5f5" stroke="#f5f5f5"></path><path d="M787.4 896L879.1 913L879.1 794Z" fill="#e1e1e1" stroke="#e1e1e1"></path><path d="M866.1 996L879.1 913L787.4 896Z" fill="#e7e7e7" stroke="#e7e7e7"></path><path d="M1106.3 621L1020.6 544L1049.6 654Z" fill="#d9d9d9" stroke="#d9d9d9"></path><path d="M1110.3 533L1093.3 515L1020.6 544Z" fill="#e1e1e1" stroke="#e1e1e1"></path><path d="M339.9 308L418.6 379L460.6 336Z" fill="#d9d9d9" stroke="#d9d9d9"></path><path d="M1093.3 515L1067.6 406L997.6 447Z" fill="#e7e7e7" stroke="#e7e7e7"></path><path d="M879.1 913L966.9 862L879.1 794Z" fill="#dcdcdc" stroke="#dcdcdc"></path><path d="M1008.6 765L1097.3 736L1054.6 706Z" fill="#eaeaea" stroke="#eaeaea"></path><path d="M930.9 126L885.1 265L916.9 271Z" fill="#eaeaea" stroke="#eaeaea"></path><path d="M930.9 126L823.1 166L885.1 265Z" fill="#ededed" stroke="#ededed"></path><path d="M316.9 694L361.9 815L433.6 732Z" fill="#efefef" stroke="#efefef"></path><path d="M721.7 1016L748.4 974L711.7 957Z" fill="#d9d9d9" stroke="#d9d9d9"></path><path d="M711.7 957L748.4 974L787.4 896Z" fill="#dfdfdf" stroke="#dfdfdf"></path><path d="M1097.3 736L1106.3 621L1054.6 706Z" fill="#f5f5f5" stroke="#f5f5f5"></path><path d="M1054.6 706L1106.3 621L1049.6 654Z" fill="#ededed" stroke="#ededed"></path><path d="M1106.3 621L1110.3 533L1020.6 544Z" fill="#f5f5f5" stroke="#f5f5f5"></path><path d="M1200 469L1100.3 380L1067.6 406Z" fill="#e4e4e4" stroke="#e4e4e4"></path><path d="M535.3 159L488.3 278L618 266Z" fill="#ededed" stroke="#ededed"></path><path d="M488.3 278L339.9 308L460.6 336Z" fill="#dfdfdf" stroke="#dfdfdf"></path><path d="M200.4 438L265.1 545L297.1 494Z" fill="#e4e4e4" stroke="#e4e4e4"></path><path d="M297.1 494L265.1 545L325.9 488Z" fill="#efefef" stroke="#efefef"></path><path d="M823.1 166L735.4 135L789.4 245Z" fill="#e1e1e1" stroke="#e1e1e1"></path><path d="M564 140L535.3 159L618 266Z" fill="#e1e1e1" stroke="#e1e1e1"></path><path d="M361.9 815L454.6 914L467.6 822Z" fill="#e7e7e7" stroke="#e7e7e7"></path><path d="M593 940L721.7 1016L711.7 957Z" fill="#dfdfdf" stroke="#dfdfdf"></path><path d="M564 140L618 266L664.7 168Z" fill="#d9d9d9" stroke="#d9d9d9"></path><path d="M460.6 202L339.9 308L488.3 278Z" fill="#e1e1e1" stroke="#e1e1e1"></path><path d="M312.9 409L200.4 438L297.1 494Z" fill="#e4e4e4" stroke="#e4e4e4"></path><path d="M879.1 913L925.9 920L966.9 862Z" fill="#e1e1e1" stroke="#e1e1e1"></path><path d="M866.1 996L925.9 920L879.1 913Z" fill="#dcdcdc" stroke="#dcdcdc"></path><path d="M576 119L564 140L664.7 168Z" fill="#f2f2f2" stroke="#f2f2f2"></path><path d="M535.3 159L402.6 145L460.6 202Z" fill="#f5f5f5" stroke="#f5f5f5"></path><path d="M454.6 914L486.3 946L553.3 852Z" fill="#dfdfdf" stroke="#dfdfdf"></path><path d="M316.9 694L284.1 732L361.9 815Z" fill="#f5f5f5" stroke="#f5f5f5"></path><path d="M254.1 677L284.1 732L316.9 694Z" fill="#dcdcdc" stroke="#dcdcdc"></path><path d="M266.1 846L346.9 839L361.9 815Z" fill="#e1e1e1" stroke="#e1e1e1"></path><path d="M361.9 815L346.9 839L454.6 914Z" fill="#dfdfdf" stroke="#dfdfdf"></path><path d="M454.6 914L430.6 970L486.3 946Z" fill="#dfdfdf" stroke="#dfdfdf"></path><path d="M1027.6 864L1008.6 765L966.9 862Z" fill="#dfdfdf" stroke="#dfdfdf"></path><path d="M1126.3 826L1097.3 736L1008.6 765Z" fill="#ededed" stroke="#ededed"></path><path d="M1067.6 406L1086.3 352L1017.6 345Z" fill="#dcdcdc" stroke="#dcdcdc"></path><path d="M1012.6 158L930.9 126L916.9 271Z" fill="#dcdcdc" stroke="#dcdcdc"></path><path d="M1100.3 380L1086.3 352L1067.6 406Z" fill="#eaeaea" stroke="#eaeaea"></path><path d="M1200 469L1067.6 406L1093.3 515Z" fill="#ededed" stroke="#ededed"></path><path d="M265.1 545L254.1 677L344.9 645Z" fill="#f5f5f5" stroke="#f5f5f5"></path><path d="M657.7 81L576 119L664.7 168Z" fill="#f5f5f5" stroke="#f5f5f5"></path><path d="M564 140L548.3 99L535.3 159Z" fill="#d9d9d9" stroke="#d9d9d9"></path><path d="M1002.6 958L1027.6 864L966.9 862Z" fill="#e1e1e1" stroke="#e1e1e1"></path><path d="M563 1072L721.7 1016L593 940Z" fill="#e7e7e7" stroke="#e7e7e7"></path><path d="M748.4 974L866.1 996L787.4 896Z" fill="#efefef" stroke="#efefef"></path><path d="M339.9 308L268.1 372L312.9 409Z" fill="#f5f5f5" stroke="#f5f5f5"></path><path d="M265.1 545L161.4 620L254.1 677Z" fill="#d9d9d9" stroke="#d9d9d9"></path><path d="M839.1 1056L866.1 996L748.4 974Z" fill="#efefef" stroke="#efefef"></path><path d="M925.9 920L1002.6 958L966.9 862Z" fill="#e4e4e4" stroke="#e4e4e4"></path><path d="M735.4 135L657.7 81L664.7 168Z" fill="#efefef" stroke="#efefef"></path><path d="M740.4 46L657.7 81L735.4 135Z" fill="#e1e1e1" stroke="#e1e1e1"></path><path d="M616 0L548.3 99L576 119Z" fill="#e1e1e1" stroke="#e1e1e1"></path><path d="M576 119L548.3 99L564 140Z" fill="#dfdfdf" stroke="#dfdfdf"></path><path d="M460.6 202L360.9 198L339.9 308Z" fill="#efefef" stroke="#efefef"></path><path d="M339.9 308L228.1 296L268.1 372Z" fill="#eaeaea" stroke="#eaeaea"></path><path d="M305.9 951L430.6 970L454.6 914Z" fill="#efefef" stroke="#efefef"></path><path d="M486.3 946L486.3 1030L593 940Z" fill="#f5f5f5" stroke="#f5f5f5"></path><path d="M402.6 145L360.9 198L460.6 202Z" fill="#efefef" stroke="#efefef"></path><path d="M1064.6 214L916.9 271L1017.6 345Z" fill="#f5f5f5" stroke="#f5f5f5"></path><path d="M851.1 65L740.4 46L735.4 135Z" fill="#efefef" stroke="#efefef"></path><path d="M360.9 198L317.9 226L339.9 308Z" fill="#dfdfdf" stroke="#dfdfdf"></path><path d="M1200 332L1095.3 259L1086.3 352Z" fill="#d9d9d9" stroke="#d9d9d9"></path><path d="M1086.3 352L1095.3 259L1017.6 345Z" fill="#dfdfdf" stroke="#dfdfdf"></path><path d="M1200 332L1086.3 352L1100.3 380Z" fill="#e1e1e1" stroke="#e1e1e1"></path><path d="M548.3 99L402.6 145L535.3 159Z" fill="#efefef" stroke="#efefef"></path><path d="M241.1 159L224.1 238L317.9 226Z" fill="#e7e7e7" stroke="#e7e7e7"></path><path d="M133.4 327L200.4 438L268.1 372Z" fill="#e4e4e4" stroke="#e4e4e4"></path><path d="M268.1 372L200.4 438L312.9 409Z" fill="#e1e1e1" stroke="#e1e1e1"></path><path d="M669.7 1143L760.4 1060L721.7 1016Z" fill="#efefef" stroke="#efefef"></path><path d="M721.7 1016L760.4 1060L748.4 974Z" fill="#d9d9d9" stroke="#d9d9d9"></path><path d="M974.9 1021L925.9 920L866.1 996Z" fill="#e4e4e4" stroke="#e4e4e4"></path><path d="M974.9 1021L1002.6 958L925.9 920Z" fill="#e4e4e4" stroke="#e4e4e4"></path><path d="M1027.6 864L1126.3 826L1008.6 765Z" fill="#f5f5f5" stroke="#f5f5f5"></path><path d="M1095.3 259L1064.6 214L1017.6 345Z" fill="#e1e1e1" stroke="#e1e1e1"></path><path d="M1106.3 621L1200 519L1110.3 533Z" fill="#e7e7e7" stroke="#e7e7e7"></path><path d="M1110.3 533L1200 469L1093.3 515Z" fill="#f5f5f5" stroke="#f5f5f5"></path><path d="M1200 645L1200 519L1106.3 621Z" fill="#efefef" stroke="#efefef"></path><path d="M1200 645L1106.3 621L1200 718Z" fill="#ededed" stroke="#ededed"></path><path d="M1154.3 877L1126.3 826L1027.6 864Z" fill="#ededed" stroke="#ededed"></path><path d="M284.1 732L266.1 846L361.9 815Z" fill="#d9d9d9" stroke="#d9d9d9"></path><path d="M346.9 839L305.9 951L454.6 914Z" fill="#efefef" stroke="#efefef"></path><path d="M232.1 815L266.1 846L284.1 732Z" fill="#d9d9d9" stroke="#d9d9d9"></path><path d="M232.1 815L284.1 732L149.4 697Z" fill="#ededed" stroke="#ededed"></path><path d="M406.6 1036L486.3 1030L430.6 970Z" fill="#f5f5f5" stroke="#f5f5f5"></path><path d="M430.6 970L486.3 1030L486.3 946Z" fill="#ededed" stroke="#ededed"></path><path d="M1064.6 214L1012.6 158L916.9 271Z" fill="#e7e7e7" stroke="#e7e7e7"></path><path d="M851.1 65L823.1 166L930.9 126Z" fill="#efefef" stroke="#efefef"></path><path d="M851.1 65L735.4 135L823.1 166Z" fill="#f5f5f5" stroke="#f5f5f5"></path><path d="M657.7 81L616 0L576 119Z" fill="#dfdfdf" stroke="#dfdfdf"></path><path d="M1200 718L1106.3 621L1097.3 736Z" fill="#e4e4e4" stroke="#e4e4e4"></path><path d="M1200 519L1200 469L1110.3 533Z" fill="#f2f2f2" stroke="#f2f2f2"></path><path d="M760.4 1060L839.1 1056L748.4 974Z" fill="#e7e7e7" stroke="#e7e7e7"></path><path d="M976.9 93L851.1 65L930.9 126Z" fill="#f5f5f5" stroke="#f5f5f5"></path><path d="M149.4 697L284.1 732L254.1 677Z" fill="#f5f5f5" stroke="#f5f5f5"></path><path d="M486.3 1030L563 1072L593 940Z" fill="#f5f5f5" stroke="#f5f5f5"></path><path d="M754.4 1145L874.1 1085L839.1 1056Z" fill="#d9d9d9" stroke="#d9d9d9"></path><path d="M224.1 238L228.1 296L317.9 226Z" fill="#f2f2f2" stroke="#f2f2f2"></path><path d="M317.9 226L228.1 296L339.9 308Z" fill="#e1e1e1" stroke="#e1e1e1"></path><path d="M146.4 565L265.1 545L200.4 438Z" fill="#dfdfdf" stroke="#dfdfdf"></path><path d="M146.4 565L161.4 620L265.1 545Z" fill="#e7e7e7" stroke="#e7e7e7"></path><path d="M1200 804L1200 718L1097.3 736Z" fill="#dfdfdf" stroke="#dfdfdf"></path><path d="M492.3 1154L575 1086L563 1072Z" fill="#efefef" stroke="#efefef"></path><path d="M563 1072L575 1086L721.7 1016Z" fill="#efefef" stroke="#efefef"></path><path d="M874.1 1085L974.9 1021L866.1 996Z" fill="#d9d9d9" stroke="#d9d9d9"></path><path d="M1105.3 948L1154.3 877L1027.6 864Z" fill="#e7e7e7" stroke="#e7e7e7"></path><path d="M1115.3 141L995.6 110L1012.6 158Z" fill="#f5f5f5" stroke="#f5f5f5"></path><path d="M1012.6 158L995.6 110L930.9 126Z" fill="#d9d9d9" stroke="#d9d9d9"></path><path d="M1115.3 141L1012.6 158L1064.6 214Z" fill="#dfdfdf" stroke="#dfdfdf"></path><path d="M135.4 460L146.4 565L200.4 438Z" fill="#dfdfdf" stroke="#dfdfdf"></path><path d="M1200 469L1200 364L1100.3 380Z" fill="#eaeaea" stroke="#eaeaea"></path><path d="M1095.3 259L1115.3 141L1064.6 214Z" fill="#efefef" stroke="#efefef"></path><path d="M995.6 110L976.9 93L930.9 126Z" fill="#dfdfdf" stroke="#dfdfdf"></path><path d="M285.1 944L305.9 951L346.9 839Z" fill="#d9d9d9" stroke="#d9d9d9"></path><path d="M486.3 1030L492.3 1154L563 1072Z" fill="#e1e1e1" stroke="#e1e1e1"></path><path d="M285.1 944L346.9 839L266.1 846Z" fill="#f5f5f5" stroke="#f5f5f5"></path><path d="M363.9 1009L406.6 1036L430.6 970Z" fill="#ededed" stroke="#ededed"></path><path d="M305.9 951L363.9 1009L430.6 970Z" fill="#eaeaea" stroke="#eaeaea"></path><path d="M839.1 1056L874.1 1085L866.1 996Z" fill="#f5f5f5" stroke="#f5f5f5"></path><path d="M754.4 1145L839.1 1056L760.4 1060Z" fill="#f5f5f5" stroke="#f5f5f5"></path><path d="M1200 364L1200 332L1100.3 380Z" fill="#dfdfdf" stroke="#dfdfdf"></path><path d="M123.7 613L149.4 697L161.4 620Z" fill="#efefef" stroke="#efefef"></path><path d="M161.4 620L149.4 697L254.1 677Z" fill="#efefef" stroke="#efefef"></path><path d="M207.4 864L285.1 944L266.1 846Z" fill="#d9d9d9" stroke="#d9d9d9"></path><path d="M207.4 864L266.1 846L232.1 815Z" fill="#e7e7e7" stroke="#e7e7e7"></path><path d="M305.9 951L256.1 1026L363.9 1009Z" fill="#dcdcdc" stroke="#dcdcdc"></path><path d="M740.4 46L674.7 0L657.7 81Z" fill="#dcdcdc" stroke="#dcdcdc"></path><path d="M548.3 99L387.6 56L402.6 145Z" fill="#e1e1e1" stroke="#e1e1e1"></path><path d="M757.4 0L674.7 0L740.4 46Z" fill="#d9d9d9" stroke="#d9d9d9"></path><path d="M757.4 0L740.4 46L838.1 0Z" fill="#e1e1e1" stroke="#e1e1e1"></path><path d="M1105.3 948L1027.6 864L1002.6 958Z" fill="#dfdfdf" stroke="#dfdfdf"></path><path d="M1126.3 826L1200 804L1097.3 736Z" fill="#eaeaea" stroke="#eaeaea"></path><path d="M838.1 0L740.4 46L851.1 65Z" fill="#e4e4e4" stroke="#e4e4e4"></path><path d="M133.4 327L135.4 460L200.4 438Z" fill="#d9d9d9" stroke="#d9d9d9"></path><path d="M146.4 565L123.7 613L161.4 620Z" fill="#f5f5f5" stroke="#f5f5f5"></path><path d="M674.7 0L616 0L657.7 81Z" fill="#efefef" stroke="#efefef"></path><path d="M1154.3 877L1200 804L1126.3 826Z" fill="#efefef" stroke="#efefef"></path><path d="M241.1 159L317.9 226L360.9 198Z" fill="#f2f2f2" stroke="#f2f2f2"></path><path d="M228.1 296L133.4 327L268.1 372Z" fill="#dcdcdc" stroke="#dcdcdc"></path><path d="M241.1 159L360.9 198L337.9 65Z" fill="#ededed" stroke="#ededed"></path><path d="M1046.6 1021L1105.3 948L1002.6 958Z" fill="#e4e4e4" stroke="#e4e4e4"></path><path d="M1046.6 1021L1002.6 958L974.9 1021Z" fill="#dcdcdc" stroke="#dcdcdc"></path><path d="M110.7 545L123.7 613L146.4 565Z" fill="#e4e4e4" stroke="#e4e4e4"></path><path d="M156.4 834L207.4 864L232.1 815Z" fill="#d9d9d9" stroke="#d9d9d9"></path><path d="M967.9 0L838.1 0L851.1 65Z" fill="#eaeaea" stroke="#eaeaea"></path><path d="M107.7 489L110.7 545L146.4 565Z" fill="#eaeaea" stroke="#eaeaea"></path><path d="M1064.6 1081L1046.6 1021L974.9 1021Z" fill="#f2f2f2" stroke="#f2f2f2"></path><path d="M608 1200L669.7 1143L575 1086Z" fill="#dfdfdf" stroke="#dfdfdf"></path><path d="M575 1086L669.7 1143L721.7 1016Z" fill="#f2f2f2" stroke="#f2f2f2"></path><path d="M861.1 1200L903.9 1103L874.1 1085Z" fill="#d9d9d9" stroke="#d9d9d9"></path><path d="M874.1 1085L903.9 1103L974.9 1021Z" fill="#e7e7e7" stroke="#e7e7e7"></path><path d="M60.7 372L107.7 489L135.4 460Z" fill="#f5f5f5" stroke="#f5f5f5"></path><path d="M135.4 460L107.7 489L146.4 565Z" fill="#e1e1e1" stroke="#e1e1e1"></path><path d="M616 0L511.3 0L548.3 99Z" fill="#f5f5f5" stroke="#f5f5f5"></path><path d="M464.6 0L387.6 56L548.3 99Z" fill="#ededed" stroke="#ededed"></path><path d="M669.7 1143L754.4 1145L760.4 1060Z" fill="#dfdfdf" stroke="#dfdfdf"></path><path d="M1200 332L1200 255L1095.3 259Z" fill="#ededed" stroke="#ededed"></path><path d="M1002.6 0L967.9 0L976.9 93Z" fill="#efefef" stroke="#efefef"></path><path d="M1200 197L1115.3 141L1095.3 259Z" fill="#efefef" stroke="#efefef"></path><path d="M976.9 93L967.9 0L851.1 65Z" fill="#f2f2f2" stroke="#f2f2f2"></path><path d="M363.9 1009L398.6 1079L406.6 1036Z" fill="#e4e4e4" stroke="#e4e4e4"></path><path d="M406.6 1036L398.6 1079L486.3 1030Z" fill="#f2f2f2" stroke="#f2f2f2"></path><path d="M310.9 1118L398.6 1079L363.9 1009Z" fill="#efefef" stroke="#efefef"></path><path d="M256.1 1026L305.9 951L285.1 944Z" fill="#ededed" stroke="#ededed"></path><path d="M1200 947L1154.3 877L1105.3 948Z" fill="#dfdfdf" stroke="#dfdfdf"></path><path d="M1200 947L1200 871L1154.3 877Z" fill="#dcdcdc" stroke="#dcdcdc"></path><path d="M1154.3 877L1200 871L1200 804Z" fill="#dfdfdf" stroke="#dfdfdf"></path><path d="M110.7 768L156.4 834L232.1 815Z" fill="#dcdcdc" stroke="#dcdcdc"></path><path d="M178.4 1018L256.1 1026L285.1 944Z" fill="#dfdfdf" stroke="#dfdfdf"></path><path d="M110.7 768L232.1 815L149.4 697Z" fill="#d9d9d9" stroke="#d9d9d9"></path><path d="M110.7 768L149.4 697L68.7 729Z" fill="#efefef" stroke="#efefef"></path><path d="M337.9 65L360.9 198L402.6 145Z" fill="#e4e4e4" stroke="#e4e4e4"></path><path d="M155.4 251L133.4 327L228.1 296Z" fill="#dfdfdf" stroke="#dfdfdf"></path><path d="M511.3 0L464.6 0L548.3 99Z" fill="#e1e1e1" stroke="#e1e1e1"></path><path d="M387.6 56L337.9 65L402.6 145Z" fill="#f2f2f2" stroke="#f2f2f2"></path><path d="M122.7 319L133.4 327L155.4 251Z" fill="#e4e4e4" stroke="#e4e4e4"></path><path d="M369.9 0L337.9 65L387.6 56Z" fill="#dfdfdf" stroke="#dfdfdf"></path><path d="M68.7 729L149.4 697L123.7 613Z" fill="#dcdcdc" stroke="#dcdcdc"></path><path d="M68.7 729L123.7 613L0 654Z" fill="#eaeaea" stroke="#eaeaea"></path><path d="M155.4 251L228.1 296L224.1 238Z" fill="#f2f2f2" stroke="#f2f2f2"></path><path d="M133.4 327L60.7 372L135.4 460Z" fill="#e7e7e7" stroke="#e7e7e7"></path><path d="M189.4 159L155.4 251L224.1 238Z" fill="#d9d9d9" stroke="#d9d9d9"></path><path d="M1002.6 0L976.9 93L995.6 110Z" fill="#e7e7e7" stroke="#e7e7e7"></path><path d="M1200 255L1200 197L1095.3 259Z" fill="#eaeaea" stroke="#eaeaea"></path><path d="M1120.3 0L1002.6 0L995.6 110Z" fill="#dfdfdf" stroke="#dfdfdf"></path><path d="M398.6 1079L492.3 1154L486.3 1030Z" fill="#f2f2f2" stroke="#f2f2f2"></path><path d="M669.7 1143L743.4 1200L754.4 1145Z" fill="#dcdcdc" stroke="#dcdcdc"></path><path d="M144.4 965L285.1 944L207.4 864Z" fill="#f5f5f5" stroke="#f5f5f5"></path><path d="M398.6 1079L467.6 1200L492.3 1154Z" fill="#e4e4e4" stroke="#e4e4e4"></path><path d="M144.4 965L207.4 864L156.4 834Z" fill="#eaeaea" stroke="#eaeaea"></path><path d="M1152.3 55L995.6 110L1115.3 141Z" fill="#dfdfdf" stroke="#dfdfdf"></path><path d="M1128.3 1036L1200 947L1105.3 948Z" fill="#eaeaea" stroke="#eaeaea"></path><path d="M1128.3 1036L1105.3 948L1046.6 1021Z" fill="#f5f5f5" stroke="#f5f5f5"></path><path d="M183.4 94L189.4 159L241.1 159Z" fill="#dcdcdc" stroke="#dcdcdc"></path><path d="M241.1 159L189.4 159L224.1 238Z" fill="#f5f5f5" stroke="#f5f5f5"></path><path d="M0 321L60.7 372L122.7 319Z" fill="#eaeaea" stroke="#eaeaea"></path><path d="M608 1200L679.7 1200L669.7 1143Z" fill="#eaeaea" stroke="#eaeaea"></path><path d="M754.4 1145L861.1 1200L874.1 1085Z" fill="#e1e1e1" stroke="#e1e1e1"></path><path d="M989.6 1200L1064.6 1081L903.9 1103Z" fill="#f5f5f5" stroke="#f5f5f5"></path><path d="M903.9 1103L1064.6 1081L974.9 1021Z" fill="#efefef" stroke="#efefef"></path><path d="M679.7 1200L743.4 1200L669.7 1143Z" fill="#e4e4e4" stroke="#e4e4e4"></path><path d="M464.6 0L369.9 0L387.6 56Z" fill="#f5f5f5" stroke="#f5f5f5"></path><path d="M337.9 65L232.1 72L241.1 159Z" fill="#e1e1e1" stroke="#e1e1e1"></path><path d="M0 599L110.7 545L107.7 489Z" fill="#f5f5f5" stroke="#f5f5f5"></path><path d="M0 599L123.7 613L110.7 545Z" fill="#e7e7e7" stroke="#e7e7e7"></path><path d="M60.7 889L144.4 965L156.4 834Z" fill="#efefef" stroke="#efefef"></path><path d="M551.3 1200L608 1200L575 1086Z" fill="#eaeaea" stroke="#eaeaea"></path><path d="M1064.6 1081L1128.3 1036L1046.6 1021Z" fill="#ededed" stroke="#ededed"></path><path d="M467.6 1200L551.3 1200L492.3 1154Z" fill="#f5f5f5" stroke="#f5f5f5"></path><path d="M492.3 1154L551.3 1200L575 1086Z" fill="#dcdcdc" stroke="#dcdcdc"></path><path d="M99.7 247L122.7 319L155.4 251Z" fill="#e1e1e1" stroke="#e1e1e1"></path><path d="M122.7 319L60.7 372L133.4 327Z" fill="#f5f5f5" stroke="#f5f5f5"></path><path d="M743.4 1200L861.1 1200L754.4 1145Z" fill="#f5f5f5" stroke="#f5f5f5"></path><path d="M89.7 179L99.7 247L155.4 251Z" fill="#ededed" stroke="#ededed"></path><path d="M231.1 0L232.1 72L337.9 65Z" fill="#d9d9d9" stroke="#d9d9d9"></path><path d="M189.4 159L89.7 179L155.4 251Z" fill="#f2f2f2" stroke="#f2f2f2"></path><path d="M230.1 1098L310.9 1118L256.1 1026Z" fill="#e7e7e7" stroke="#e7e7e7"></path><path d="M256.1 1026L310.9 1118L363.9 1009Z" fill="#eaeaea" stroke="#eaeaea"></path><path d="M325.9 1200L467.6 1200L398.6 1079Z" fill="#eaeaea" stroke="#eaeaea"></path><path d="M60.7 889L156.4 834L110.7 768Z" fill="#ededed" stroke="#ededed"></path><path d="M1200 88L1152.3 55L1115.3 141Z" fill="#efefef" stroke="#efefef"></path><path d="M1128.3 1036L1200 1019L1200 947Z" fill="#ededed" stroke="#ededed"></path><path d="M1200 1128L1200 1019L1128.3 1036Z" fill="#dfdfdf" stroke="#dfdfdf"></path><path d="M1134.3 1142L1128.3 1036L1064.6 1081Z" fill="#eaeaea" stroke="#eaeaea"></path><path d="M144.4 965L178.4 1018L285.1 944Z" fill="#dfdfdf" stroke="#dfdfdf"></path><path d="M207.4 0L183.4 94L232.1 72Z" fill="#e1e1e1" stroke="#e1e1e1"></path><path d="M232.1 72L183.4 94L241.1 159Z" fill="#dcdcdc" stroke="#dcdcdc"></path><path d="M861.1 1200L946.9 1200L903.9 1103Z" fill="#f5f5f5" stroke="#f5f5f5"></path><path d="M0 442L0 599L107.7 489Z" fill="#eaeaea" stroke="#eaeaea"></path><path d="M0 807L60.7 889L110.7 768Z" fill="#e4e4e4" stroke="#e4e4e4"></path><path d="M1200 197L1200 88L1115.3 141Z" fill="#ededed" stroke="#ededed"></path><path d="M0 599L0 654L123.7 613Z" fill="#dfdfdf" stroke="#dfdfdf"></path><path d="M0 359L0 442L60.7 372Z" fill="#ededed" stroke="#ededed"></path><path d="M60.7 372L0 442L107.7 489Z" fill="#efefef" stroke="#efefef"></path><path d="M1200 0L1120.3 0L1152.3 55Z" fill="#e7e7e7" stroke="#e7e7e7"></path><path d="M1152.3 55L1120.3 0L995.6 110Z" fill="#f2f2f2" stroke="#f2f2f2"></path><path d="M946.9 1200L989.6 1200L903.9 1103Z" fill="#dcdcdc" stroke="#dcdcdc"></path><path d="M178.4 1018L230.1 1098L256.1 1026Z" fill="#f5f5f5" stroke="#f5f5f5"></path><path d="M310.9 1118L325.9 1200L398.6 1079Z" fill="#f2f2f2" stroke="#f2f2f2"></path><path d="M99.7 99L89.7 179L189.4 159Z" fill="#eaeaea" stroke="#eaeaea"></path><path d="M0 321L0 359L60.7 372Z" fill="#e1e1e1" stroke="#e1e1e1"></path><path d="M144.4 965L81.7 1005L178.4 1018Z" fill="#eaeaea" stroke="#eaeaea"></path><path d="M178.4 1018L151.4 1105L230.1 1098Z" fill="#f5f5f5" stroke="#f5f5f5"></path><path d="M0 807L110.7 768L68.7 729Z" fill="#e1e1e1" stroke="#e1e1e1"></path><path d="M0 321L122.7 319L99.7 247Z" fill="#dcdcdc" stroke="#dcdcdc"></path><path d="M0 654L0 759L68.7 729Z" fill="#efefef" stroke="#efefef"></path><path d="M369.9 0L231.1 0L337.9 65Z" fill="#dcdcdc" stroke="#dcdcdc"></path><path d="M183.4 94L99.7 99L189.4 159Z" fill="#f5f5f5" stroke="#f5f5f5"></path><path d="M0 994L86.7 969L60.7 889Z" fill="#dfdfdf" stroke="#dfdfdf"></path><path d="M60.7 889L86.7 969L144.4 965Z" fill="#f5f5f5" stroke="#f5f5f5"></path><path d="M0 222L0 321L99.7 247Z" fill="#e1e1e1" stroke="#e1e1e1"></path><path d="M1081.3 1200L1134.3 1142L1064.6 1081Z" fill="#d9d9d9" stroke="#d9d9d9"></path><path d="M0 759L0 807L68.7 729Z" fill="#eaeaea" stroke="#eaeaea"></path><path d="M251.1 1200L310.9 1118L230.1 1098Z" fill="#f5f5f5" stroke="#f5f5f5"></path><path d="M251.1 1200L325.9 1200L310.9 1118Z" fill="#e7e7e7" stroke="#e7e7e7"></path><path d="M231.1 0L207.4 0L232.1 72Z" fill="#d9d9d9" stroke="#d9d9d9"></path><path d="M0 807L0 845L60.7 889Z" fill="#e7e7e7" stroke="#e7e7e7"></path><path d="M95.7 0L99.7 99L183.4 94Z" fill="#e7e7e7" stroke="#e7e7e7"></path><path d="M89.7 179L0 222L99.7 247Z" fill="#dfdfdf" stroke="#dfdfdf"></path><path d="M989.6 1200L1081.3 1200L1064.6 1081Z" fill="#d9d9d9" stroke="#d9d9d9"></path><path d="M0 994L81.7 1005L86.7 969Z" fill="#e7e7e7" stroke="#e7e7e7"></path><path d="M86.7 969L81.7 1005L144.4 965Z" fill="#eaeaea" stroke="#eaeaea"></path><path d="M1200 88L1200 0L1152.3 55Z" fill="#e7e7e7" stroke="#e7e7e7"></path><path d="M1200 1200L1200 1128L1134.3 1142Z" fill="#e4e4e4" stroke="#e4e4e4"></path><path d="M1134.3 1142L1200 1128L1128.3 1036Z" fill="#f5f5f5" stroke="#f5f5f5"></path><path d="M100.7 1092L151.4 1105L178.4 1018Z" fill="#e4e4e4" stroke="#e4e4e4"></path><path d="M0 129L0 222L89.7 179Z" fill="#ededed" stroke="#ededed"></path><path d="M174.4 1200L251.1 1200L230.1 1098Z" fill="#e4e4e4" stroke="#e4e4e4"></path><path d="M0 1015L100.7 1092L81.7 1005Z" fill="#efefef" stroke="#efefef"></path><path d="M81.7 1005L100.7 1092L178.4 1018Z" fill="#e7e7e7" stroke="#e7e7e7"></path><path d="M151.4 1105L174.4 1200L230.1 1098Z" fill="#eaeaea" stroke="#eaeaea"></path><path d="M0 63L0 129L99.7 99Z" fill="#dcdcdc" stroke="#dcdcdc"></path><path d="M99.7 99L0 129L89.7 179Z" fill="#eaeaea" stroke="#eaeaea"></path><path d="M207.4 0L95.7 0L183.4 94Z" fill="#f5f5f5" stroke="#f5f5f5"></path><path d="M0 845L0 994L60.7 889Z" fill="#e7e7e7" stroke="#e7e7e7"></path><path d="M1081.3 1200L1200 1200L1134.3 1142Z" fill="#e4e4e4" stroke="#e4e4e4"></path><path d="M59.7 1200L151.4 1105L100.7 1092Z" fill="#efefef" stroke="#efefef"></path><path d="M59.7 1200L174.4 1200L151.4 1105Z" fill="#e4e4e4" stroke="#e4e4e4"></path><path d="M0 994L0 1015L81.7 1005Z" fill="#e7e7e7" stroke="#e7e7e7"></path><path d="M95.7 0L0 63L99.7 99Z" fill="#efefef" stroke="#efefef"></path><path d="M0 1015L0 1104L100.7 1092Z" fill="#dcdcdc" stroke="#dcdcdc"></path><path d="M95.7 0L0 0L0 63Z" fill="#e7e7e7" stroke="#e7e7e7"></path><path d="M0 1104L59.7 1200L100.7 1092Z" fill="#f5f5f5" stroke="#f5f5f5"></path><path d="M0 1104L0 1200L59.7 1200Z" fill="#dfdfdf" stroke="#dfdfdf"></path></g></svg>